<svg id="Layer_1" data-name="Layer 1" xmlns="http://www.w3.org/2000/svg" viewBox="0 0 123.01 34.67"><title>logo2</title><path d="M14,25.46,0,11.53v13L10.16,34.67H24.52L34.67,24.52v-13l-14,13.93A4.76,4.76,0,0,1,14,25.46Z" fill="#8b8e93"/><path d="M24.52,0H10.16L0,10.16v13.4L14,9.62a4.76,4.76,0,0,1,6.72,0l14,13.94V10.16Z" fill="#fff"/><path d="M66.6,9.63a8.21,8.21,0,0,1,2.75,2.07,9.34,9.34,0,0,1,1.73,3.05,11.71,11.71,0,0,1,0,7.4,9.24,9.24,0,0,1-1.73,3.05,8.06,8.06,0,0,1-2.75,2.06,9.27,9.27,0,0,1-7.35,0,8.1,8.1,0,0,1-2.76-2.06,9.22,9.22,0,0,1-1.72-3.05,11.53,11.53,0,0,1,0-7.4,9.32,9.32,0,0,1,1.72-3.05,8.25,8.25,0,0,1,2.76-2.07,9.15,9.15,0,0,1,7.35,0Zm-6.2,2.43a5,5,0,0,0-1.73,1.58,7,7,0,0,0-1,2.24,10.4,10.4,0,0,0,0,5.12,7.09,7.09,0,0,0,1,2.24,4.84,4.84,0,0,0,1.73,1.57,5.68,5.68,0,0,0,5,0,4.84,4.84,0,0,0,1.73-1.57,7.11,7.11,0,0,0,1-2.24,10.4,10.4,0,0,0,0-5.12,7,7,0,0,0-1-2.24,5,5,0,0,0-1.73-1.58,5.68,5.68,0,0,0-5,0Z" fill="#fff"/><path d="M77,14.34v1.79h0a3.69,3.69,0,0,1,1.71-1.65,5.77,5.77,0,0,1,2.38-.5,6.46,6.46,0,0,1,2.73.55A5.35,5.35,0,0,1,85.84,16,6.54,6.54,0,0,1,87,18.28a9.92,9.92,0,0,1,0,5.33,6.7,6.7,0,0,1-1,2.22,5.15,5.15,0,0,1-4.31,2.11,6.93,6.93,0,0,1-1.28-.12,5.15,5.15,0,0,1-1.23-.37,5,5,0,0,1-1.09-.65,3.72,3.72,0,0,1-.83-.94h0v6.61H74.27V14.34Zm7.19,4.89a4.68,4.68,0,0,0-.69-1.5,3.73,3.73,0,0,0-1.15-1.05,3.58,3.58,0,0,0-4.37.89,5.66,5.66,0,0,0-.93,3.4,6.86,6.86,0,0,0,.24,1.86,4.22,4.22,0,0,0,.73,1.47,3.64,3.64,0,0,0,1.16,1,3.47,3.47,0,0,0,1.58.35,3.21,3.21,0,0,0,1.69-.41,3.5,3.5,0,0,0,1.14-1.06,4.29,4.29,0,0,0,.64-1.48A7.53,7.53,0,0,0,84.46,21,6.81,6.81,0,0,0,84.23,19.23Z" fill="#fff"/><path d="M92.84,9.3V27.58H89.92V9.3Z" fill="#fff"/><path d="M98.51,23.2a3.77,3.77,0,0,0,.65,1.26,3.22,3.22,0,0,0,1.1.85,3.58,3.58,0,0,0,1.59.32,3.47,3.47,0,0,0,2.06-.55,3.23,3.23,0,0,0,1.17-1.65h2.76a5.3,5.3,0,0,1-.79,1.92,5.42,5.42,0,0,1-1.36,1.42,5.57,5.57,0,0,1-1.78.87,7.5,7.5,0,0,1-4.82-.21,5.77,5.77,0,0,1-2-1.44,6.1,6.1,0,0,1-1.25-2.2A8.69,8.69,0,0,1,95.37,21a7.88,7.88,0,0,1,.45-2.67,6.92,6.92,0,0,1,1.28-2.23,6.15,6.15,0,0,1,2-1.52,6.08,6.08,0,0,1,2.67-.57,5.88,5.88,0,0,1,2.8.66,6.16,6.16,0,0,1,2.06,1.72,7,7,0,0,1,1.19,2.48,7.51,7.51,0,0,1,.19,2.88H98.29A5.25,5.25,0,0,0,98.51,23.2Zm6.3-4.74a3.47,3.47,0,0,0-.67-1.11,3.27,3.27,0,0,0-1-.77,3.1,3.1,0,0,0-1.34-.29,3.5,3.5,0,0,0-1.4.27,3.15,3.15,0,0,0-1.08.74,3.84,3.84,0,0,0-.71,1.11,4,4,0,0,0-.3,1.39h6.81A4.72,4.72,0,0,0,104.81,18.46Z" fill="#fff"/><path d="M113.49,27.41a5.88,5.88,0,0,1-3.4-3.65,8.94,8.94,0,0,1,0-5.6,5.88,5.88,0,0,1,3.4-3.65,7.82,7.82,0,0,1,5.66,0,6,6,0,0,1,2.1,1.44,6.27,6.27,0,0,1,1.31,2.21,8.94,8.94,0,0,1,0,5.6A6.27,6.27,0,0,1,121.25,26a6,6,0,0,1-2.1,1.44,7.82,7.82,0,0,1-5.66,0ZM118,25.22a3.57,3.57,0,0,0,1.18-1.07,4.66,4.66,0,0,0,.68-1.5,6.64,6.64,0,0,0,0-3.39,4.57,4.57,0,0,0-.68-1.5A3.65,3.65,0,0,0,118,16.7a3.69,3.69,0,0,0-3.38,0,3.51,3.51,0,0,0-1.17,1.06,4.37,4.37,0,0,0-.68,1.5,6.64,6.64,0,0,0,0,3.39,4.46,4.46,0,0,0,.68,1.5,3.44,3.44,0,0,0,1.17,1.07,3.69,3.69,0,0,0,3.38,0Z" fill="#fff"/></svg>