<?xml version="1.0" encoding="utf-8"?>
<!-- Generator: Adobe Illustrator 23.0.2, SVG Export Plug-In . SVG Version: 6.00 Build 0)  -->
<svg version="1.1" id="Layer_1" xmlns="http://www.w3.org/2000/svg" xmlns:xlink="http://www.w3.org/1999/xlink" x="0px" y="0px"
	 viewBox="0 0 32 32" style="enable-background:new 0 0 32 32;" xml:space="preserve">
<style type="text/css">
	.st0{fill:#534741;stroke:#FFFFFF;stroke-width:0.1;stroke-miterlimit:10;}
	.st1{fill:none;stroke:#FFFFFF;stroke-width:0.1;stroke-miterlimit:10;}
	.st2{fill:#A67C52;stroke:#FFFFFF;stroke-width:0.1;stroke-miterlimit:10;}
	.st3{fill:#8B8E93;}
	.st4{fill:#FFFFFF;}
	.st5{fill:none;stroke:#FFFFFF;stroke-miterlimit:10;}
</style>
<g>
	<path class="st4" d="M12.5,11.3L12,10.4c-2.3,1.4-3.7,3.9-3.7,6.6c0,0.6,0.1,1.1,0.2,1.6c-0.7,0.4-1.1,1.2-1.1,2.1
		c0,1.4,1.1,2.5,2.5,2.5s2.5-1.1,2.5-2.5s-1.1-2.5-2.5-2.5c-0.1,0-0.3,0-0.4,0c-0.1-0.4-0.1-0.8-0.1-1.3
		C9.3,14.6,10.5,12.5,12.5,11.3z M11.3,20.7c0,0.8-0.7,1.5-1.5,1.5s-1.5-0.7-1.5-1.5s0.7-1.5,1.5-1.5S11.3,19.9,11.3,20.7z"/>
	<path class="st4" d="M16,12.3c1,0,1.9-0.6,2.3-1.5c2.6,1,4.4,3.4,4.4,6.3h1c0-3.3-2.1-6.2-5.2-7.3c0-1.3-1.1-2.4-2.4-2.4
		c-1.4,0-2.5,1.1-2.5,2.5S14.6,12.3,16,12.3z M16,8.3c0.8,0,1.5,0.7,1.5,1.5s-0.7,1.5-1.5,1.5c-0.8,0-1.5-0.7-1.5-1.5
		S15.2,8.3,16,8.3z"/>
	<path class="st4" d="M22.2,18.1c-1.4,0-2.5,1.1-2.5,2.5c0,0.6,0.2,1.1,0.5,1.5c-1.2,1-2.7,1.6-4.3,1.6c-1,0-2-0.2-2.9-0.6l-0.4,0.9
		c1,0.5,2.1,0.7,3.3,0.7c1.9,0,3.7-0.7,5.1-1.9c0.3,0.2,0.7,0.3,1.1,0.3c1.4,0,2.5-1.1,2.5-2.5S23.5,18.1,22.2,18.1z M22.2,22
		c-0.8,0-1.5-0.7-1.5-1.5s0.7-1.5,1.5-1.5s1.5,0.7,1.5,1.5S23,22,22.2,22z"/>
</g>
</svg>
