<?xml version="1.0" encoding="utf-8"?>
<!-- Generator: Adobe Illustrator 23.0.2, SVG Export Plug-In . SVG Version: 6.00 Build 0)  -->
<svg version="1.1" id="Layer_1" xmlns="http://www.w3.org/2000/svg" xmlns:xlink="http://www.w3.org/1999/xlink" x="0px" y="0px"
	 viewBox="0 0 32 32" style="enable-background:new 0 0 32 32;" xml:space="preserve">
<style type="text/css">
	.st0{fill:#534741;stroke:#FFFFFF;stroke-width:0.1;stroke-miterlimit:10;}
	.st1{fill:none;stroke:#FFFFFF;stroke-width:0.1;stroke-miterlimit:10;}
	.st2{fill:#A67C52;stroke:#FFFFFF;stroke-width:0.1;stroke-miterlimit:10;}
	.st3{fill:#8B8E93;}
	.st4{fill:#FFFFFF;}
	.st5{fill:none;stroke:#FFFFFF;stroke-miterlimit:10;}
</style>
<path class="st4" d="M19.1,15.2c-0.6,0-1.2,0.1-1.7,0.3V9.7c0-1.3-2-2.4-4.6-2.4s-4.6,1-4.6,2.4v10.7c0,1.3,2,2.4,4.6,2.4
	c0.9,0,1.7-0.1,2.4-0.3c0.8,1.3,2.3,2.1,3.9,2.1c2.6,0,4.7-2.1,4.7-4.7S21.7,15.2,19.1,15.2z M12.8,8.4c2.2,0,3.6,0.8,3.6,1.4
	s-1.4,1.4-3.6,1.4c-2.2,0-3.6-0.8-3.6-1.4S10.6,8.4,12.8,8.4z M9.2,11.2c0.8,0.5,2.1,0.9,3.6,0.9s2.8-0.3,3.6-0.9v2.4
	c0,0.6-1.4,1.4-3.6,1.4c-2.2,0-3.6-0.8-3.6-1.4V11.2z M9.2,15.1c0.8,0.5,2.1,0.9,3.6,0.9s2.8-0.3,3.6-0.9v1
	c-0.7,0.5-1.3,1.2-1.6,2.1c-0.6,0.2-1.2,0.3-1.9,0.3c-2.2,0-3.6-0.8-3.6-1.4V15.1z M12.8,21.8c-2.2,0-3.6-0.8-3.6-1.4v-1.9
	c0.8,0.5,2.1,0.9,3.6,0.9c0.6,0,1.1-0.1,1.7-0.2c0,0.2-0.1,0.4-0.1,0.7c0,0.6,0.1,1.2,0.3,1.7C14.1,21.8,13.5,21.8,12.8,21.8z
	 M19.1,23.6c-2,0-3.7-1.7-3.7-3.7s1.7-3.7,3.7-3.7s3.7,1.7,3.7,3.7S21.1,23.6,19.1,23.6z"/>
</svg>
