<?xml version="1.0" encoding="utf-8"?>
<!-- Generator: Adobe Illustrator 23.0.2, SVG Export Plug-In . SVG Version: 6.00 Build 0)  -->
<svg version="1.1" id="Layer_1" xmlns="http://www.w3.org/2000/svg" xmlns:xlink="http://www.w3.org/1999/xlink" x="0px" y="0px"
	 viewBox="0 0 32 32" style="enable-background:new 0 0 32 32;" xml:space="preserve">
<style type="text/css">
	.st0{fill:#534741;stroke:#FFFFFF;stroke-width:0.1;stroke-miterlimit:10;}
	.st1{fill:none;stroke:#FFFFFF;stroke-width:0.1;stroke-miterlimit:10;}
	.st2{fill:#A67C52;stroke:#FFFFFF;stroke-width:0.1;stroke-miterlimit:10;}
	.st3{fill:#8B8E93;}
	.st4{fill:#FFFFFF;}
	.st5{fill:none;stroke:#FFFFFF;stroke-miterlimit:10;}
</style>
<g>
	<path class="st4" d="M16,8.6c-2.4,0-4.7,1.2-6.1,3.2L9.5,9.8l-1,0.2l0.7,3.5l3.5,0.2l0.1-1l-2.3-0.1c1.2-1.9,3.2-3,5.5-3
		c3.6,0,6.4,2.9,6.4,6.4c0,0.2,0,0.4,0,0.6l1,0.1c0-0.2,0-0.4,0-0.6C23.4,11.9,20.1,8.6,16,8.6z"/>
	<path class="st4" d="M16,22.4c-2.8,0-5.4-1.9-6.2-4.6l-1,0.3c0.9,3.1,3.9,5.3,7.1,5.3c3.1,0,5.8-1.8,6.9-4.7L22,18.4
		C21,20.8,18.7,22.4,16,22.4z"/>
</g>
</svg>
