<?xml version="1.0" encoding="utf-8"?>
<!-- Generator: Adobe Illustrator 23.0.2, SVG Export Plug-In . SVG Version: 6.00 Build 0)  -->
<svg version="1.1" id="Layer_1" xmlns="http://www.w3.org/2000/svg" xmlns:xlink="http://www.w3.org/1999/xlink" x="0px" y="0px"
	 viewBox="0 0 32 32" style="enable-background:new 0 0 32 32;" xml:space="preserve">
<style type="text/css">
	.st0{fill:#534741;stroke:#FFFFFF;stroke-width:0.1;stroke-miterlimit:10;}
	.st1{fill:none;stroke:#FFFFFF;stroke-width:0.1;stroke-miterlimit:10;}
	.st2{fill:#A67C52;stroke:#FFFFFF;stroke-width:0.1;stroke-miterlimit:10;}
	.st3{fill:#8B8E93;}
	.st4{fill:#FFFFFF;}
	.st5{fill:none;stroke:#FFFFFF;stroke-miterlimit:10;}
</style>
<g>
	<path class="st4" d="M22.4,10.4H8.9V9.7c0-0.4,0.4-0.8,0.8-0.8h10.9v-1H9.6c-1,0-1.8,0.8-1.8,1.8v0.7v2.5v9.4c0,1,0.8,1.8,1.8,1.8
		h12.7c1,0,1.8-0.8,1.8-1.8V12.2C24.1,11.2,23.3,10.4,22.4,10.4z M23.1,22.3c0,0.4-0.4,0.8-0.8,0.8H9.6c-0.4,0-0.8-0.4-0.8-0.8v-9.4
		v-1.5h13.5c0.4,0,0.8,0.4,0.8,0.8V22.3z"/>
	<path class="st4" d="M19.8,16.3c-0.5,0-0.9,0.4-0.9,0.9s0.4,0.9,0.9,0.9c0.5,0,0.9-0.4,0.9-0.9S20.3,16.3,19.8,16.3z"/>
</g>
</svg>
